<svg width="25" height="25" viewBox="0 0 25 25" fill="none" xmlns="http://www.w3.org/2000/svg">
<path d="M9.21336 4.95044C6.59928 7.88421 4.8053 12.0991 4.63871 12.4962L0 10.5105L5.18972 5.32197C5.79199 4.71984 6.66335 4.4508 7.50908 4.61735L9.21336 4.95044ZM11.7506 18.5944C11.7506 18.5944 16.543 16.6087 19.2981 13.8542C26.2177 6.93618 25.0644 1.52985 24.6928 0.31278C23.4755 -0.0715566 18.0679 -1.21176 11.1483 5.7063C8.39325 8.46072 6.40706 13.2521 6.40706 13.2521L11.7506 18.5944ZM20.0541 15.7887C17.1197 18.4022 12.9038 20.1958 12.5066 20.3623L14.4928 25L19.6825 19.8115C20.2848 19.2093 20.5539 18.3382 20.3873 17.4926L20.0541 15.7887ZM8.96989 19.8755C8.96989 20.9388 8.53421 21.8997 7.84225 22.5915C6.33018 24.1032 0 25 0 25C0 25 0.896989 18.6713 2.40906 17.1595C2.94571 16.6202 3.63056 16.2525 4.37666 16.103C5.12276 15.9536 5.89645 16.0292 6.59949 16.3202C7.30254 16.6113 7.90321 17.1046 8.32526 17.7376C8.7473 18.3706 8.97168 19.1148 8.96989 19.8755ZM14.0955 8.34542C14.0955 6.93618 15.2488 5.78317 16.6584 5.78317C18.0679 5.78317 19.2212 6.93618 19.2212 8.34542C19.2212 9.75465 18.0679 10.9077 16.6584 10.9077C15.2488 10.9077 14.0955 9.75465 14.0955 8.34542Z" fill="white"/>
</svg>
