<?xml version="1.0" standalone="no"?>
<!DOCTYPE svg PUBLIC "-//W3C//DTD SVG 20010904//EN"
 "http://www.w3.org/TR/2001/REC-SVG-20010904/DTD/svg10.dtd">
<svg version="1.0" xmlns="http://www.w3.org/2000/svg"
 width="225.000000pt" height="225.000000pt" viewBox="0 0 225.000000 225.000000"
 preserveAspectRatio="xMidYMid meet">

<g transform="translate(0.000000,225.000000) scale(0.100000,-0.100000)"
fill="#000000" stroke="none">
<path d="M535 2174 c-202 -40 -383 -206 -451 -414 -16 -50 -19 -109 -22 -601
-3 -602 -1 -630 58 -757 69 -148 204 -264 365 -315 69 -22 80 -22 640 -22 525
0 575 1 630 18 219 68 374 234 420 452 21 102 22 1077 0 1180 -47 225 -235
413 -460 460 -99 21 -1075 20 -1180 -1z m676 -507 c19 -13 39 -38 46 -57 18
-54 18 -969 -1 -1013 -24 -58 -49 -72 -139 -76 -95 -4 -148 10 -176 46 -20 25
-21 38 -21 399 l0 374 -116 0 -116 0 -34 34 -34 34 0 104 c0 174 6 177 326
178 224 0 232 -1 265 -23z m353 12 c29 -7 57 -25 82 -50 38 -39 39 -42 39
-112 0 -60 -4 -78 -24 -106 -69 -97 -225 -91 -285 11 -58 99 -16 215 91 253
47 17 45 17 97 4z"/>
</g>
</svg>
