<svg id="svg" version="1.1" xmlns="http://www.w3.org/2000/svg" xmlns:xlink="http://www.w3.org/1999/xlink" width="400" height="385.64307078763704" viewBox="0, 0, 400,385.64307078763704"><g id="svgg"><path id="path0" d="M151.833 0.604 C 151.237 0.934,149.768 1.795,148.568 2.518 C 147.368 3.242,146.330 3.833,146.262 3.833 C 146.146 3.833,143.907 5.141,141.227 6.775 C 140.573 7.174,139.982 7.500,139.913 7.500 C 139.844 7.500,138.542 8.242,137.019 9.150 C 135.496 10.057,133.800 11.043,133.250 11.340 C 132.700 11.636,131.339 12.428,130.225 13.098 C 129.111 13.768,127.724 14.569,127.142 14.878 C 125.753 15.614,123.081 17.175,122.287 17.714 C 121.940 17.949,121.303 18.309,120.870 18.513 C 120.437 18.718,118.808 19.648,117.250 20.580 C 115.692 21.513,114.277 22.327,114.107 22.389 C 113.937 22.452,112.694 23.169,111.345 23.982 C 109.996 24.796,108.297 25.780,107.571 26.171 C 106.844 26.561,105.350 27.423,104.250 28.086 C 103.150 28.749,101.922 29.457,101.522 29.659 C 101.121 29.862,99.659 30.709,98.272 31.543 C 96.885 32.377,95.378 33.241,94.923 33.464 C 94.469 33.686,93.719 34.108,93.257 34.401 C 92.118 35.124,89.448 36.680,88.695 37.058 C 88.359 37.227,86.838 38.108,85.315 39.016 C 83.793 39.924,82.499 40.667,82.439 40.667 C 82.379 40.667,81.032 41.448,79.445 42.402 C 77.858 43.357,76.302 44.252,75.988 44.391 C 75.674 44.531,74.367 45.287,73.083 46.072 C 71.800 46.856,70.412 47.661,70.000 47.859 C 69.587 48.057,67.975 48.980,66.417 49.911 C 64.858 50.843,63.456 51.652,63.301 51.710 C 63.146 51.768,61.703 52.607,60.094 53.574 C 58.486 54.542,57.130 55.333,57.081 55.333 C 56.954 55.333,53.069 57.598,52.083 58.246 C 51.625 58.548,50.977 58.909,50.644 59.048 C 50.310 59.187,48.900 59.985,47.509 60.822 C 46.118 61.660,44.418 62.644,43.731 63.010 C 43.044 63.376,41.904 64.036,41.199 64.475 C 40.494 64.915,38.792 65.899,37.417 66.662 C 36.042 67.425,34.504 68.316,34.000 68.641 C 33.496 68.966,32.446 69.579,31.667 70.003 C 30.887 70.427,29.387 71.286,28.333 71.913 C 27.279 72.540,25.779 73.401,25.000 73.826 C 24.221 74.252,22.628 75.176,21.460 75.880 C 20.293 76.583,18.943 77.358,18.460 77.602 C 17.978 77.845,16.485 78.709,15.142 79.522 C 13.799 80.335,12.652 81.000,12.592 81.000 C 12.483 81.000,10.591 82.100,8.380 83.450 C 7.718 83.854,6.630 84.474,5.963 84.827 C 5.296 85.181,3.700 86.100,2.417 86.870 L 0.083 88.270 0.041 128.551 L -0.001 168.833 30.750 168.833 L 61.500 168.833 61.501 146.375 L 61.503 123.917 62.126 123.568 C 62.469 123.376,63.237 122.919,63.833 122.553 C 64.429 122.187,65.517 121.562,66.250 121.165 C 67.601 120.433,68.992 119.617,71.052 118.349 C 71.676 117.965,72.369 117.582,72.591 117.497 C 73.024 117.333,76.192 115.486,77.609 114.572 C 78.081 114.267,78.737 113.906,79.065 113.768 C 79.394 113.631,80.590 112.956,81.724 112.269 C 82.857 111.582,84.640 110.554,85.684 109.986 C 86.729 109.417,88.071 108.635,88.667 108.247 C 89.263 107.860,90.425 107.184,91.250 106.746 C 92.075 106.307,93.837 105.297,95.167 104.502 C 96.496 103.707,97.929 102.892,98.352 102.691 C 98.775 102.490,99.450 102.112,99.852 101.851 C 100.989 101.113,103.455 99.679,104.833 98.954 C 105.521 98.592,106.399 98.084,106.784 97.825 C 107.170 97.566,108.857 96.589,110.534 95.653 C 112.211 94.717,113.958 93.707,114.417 93.408 C 115.636 92.614,116.994 91.833,117.156 91.833 C 117.302 91.833,120.924 89.702,122.445 88.722 C 122.919 88.417,123.406 88.161,123.528 88.154 C 123.650 88.148,124.275 87.817,124.917 87.419 C 126.462 86.461,128.862 85.059,130.000 84.450 C 131.221 83.796,133.229 82.619,133.333 82.496 C 133.449 82.361,136.128 80.833,136.251 80.833 C 136.368 80.833,140.171 78.596,140.963 78.061 C 141.264 77.858,141.864 77.524,142.296 77.319 C 142.967 77.001,146.686 74.852,148.000 74.024 C 148.229 73.880,148.942 73.496,149.583 73.171 C 150.225 72.846,151.110 72.337,151.550 72.040 C 151.990 71.743,152.572 71.385,152.842 71.246 L 153.333 70.991 153.333 35.496 C 153.333 7.209,153.291 0.000,153.125 0.002 C 153.010 0.003,152.429 0.274,151.833 0.604 M174.500 35.167 L 174.500 70.333 199.917 70.333 L 225.333 70.333 225.333 35.167 L 225.333 0.000 199.917 0.000 L 174.500 0.000 174.500 35.167 M246.667 35.485 L 246.667 70.992 247.125 71.275 C 247.377 71.431,247.983 71.816,248.472 72.131 C 248.961 72.445,250.011 73.035,250.806 73.441 C 251.600 73.846,252.588 74.389,253.000 74.647 C 254.645 75.675,256.794 76.920,257.583 77.302 C 258.042 77.524,258.792 77.948,259.250 78.244 C 260.597 79.113,261.640 79.720,263.842 80.919 C 264.983 81.540,266.431 82.383,267.061 82.792 C 267.690 83.201,268.740 83.812,269.394 84.149 C 270.691 84.818,273.478 86.430,274.661 87.195 C 275.070 87.460,275.820 87.872,276.328 88.110 C 276.835 88.348,277.438 88.675,277.667 88.836 C 278.261 89.254,281.852 91.333,283.422 92.169 C 284.152 92.558,285.050 93.079,285.417 93.326 C 285.783 93.574,286.758 94.155,287.583 94.618 C 290.581 96.299,292.607 97.466,293.731 98.158 C 294.363 98.547,295.207 99.005,295.607 99.177 C 296.008 99.349,296.429 99.570,296.543 99.670 C 296.927 100.004,301.244 102.535,301.971 102.852 C 302.368 103.024,303.080 103.422,303.554 103.734 C 304.575 104.407,308.169 106.500,308.304 106.500 C 308.425 106.500,310.506 107.719,311.590 108.425 C 312.053 108.726,313.018 109.281,313.736 109.659 C 315.327 110.497,317.939 112.011,319.127 112.784 C 319.609 113.097,320.359 113.510,320.794 113.700 C 321.228 113.890,321.958 114.286,322.417 114.579 C 323.886 115.520,327.012 117.346,327.419 117.501 C 327.636 117.583,328.324 117.966,328.948 118.351 C 330.758 119.469,333.675 121.167,333.785 121.167 C 333.840 121.167,334.923 121.785,336.191 122.542 L 338.498 123.917 338.499 146.375 L 338.500 168.833 369.250 168.833 L 400.000 168.833 399.995 128.542 L 399.990 88.250 397.096 86.544 C 395.505 85.606,394.001 84.762,393.755 84.669 C 393.509 84.575,392.995 84.286,392.612 84.026 C 391.816 83.485,387.550 81.000,387.418 81.000 C 387.369 81.000,386.225 80.337,384.873 79.527 C 383.522 78.717,381.817 77.729,381.083 77.330 C 380.350 76.932,378.925 76.105,377.917 75.493 C 376.908 74.881,375.708 74.190,375.250 73.958 C 374.792 73.726,373.082 72.741,371.451 71.768 C 369.819 70.796,368.428 70.000,368.359 70.000 C 368.291 70.000,367.525 69.564,366.659 69.031 C 365.792 68.499,364.296 67.623,363.333 67.085 C 362.371 66.547,360.421 65.419,359.000 64.577 C 357.579 63.736,356.102 62.888,355.718 62.692 C 355.334 62.497,353.871 61.650,352.468 60.811 C 351.065 59.973,349.666 59.180,349.359 59.051 C 349.052 58.921,348.415 58.567,347.942 58.263 C 346.580 57.388,343.061 55.333,342.924 55.333 C 342.855 55.333,341.701 54.670,340.358 53.859 C 339.015 53.048,337.317 52.061,336.583 51.665 C 335.850 51.270,334.762 50.648,334.167 50.283 C 332.505 49.266,330.317 48.000,330.221 48.000 C 330.173 48.000,328.932 47.282,327.461 46.404 C 325.991 45.526,324.254 44.527,323.602 44.184 C 322.950 43.840,321.897 43.237,321.262 42.843 C 320.627 42.449,319.015 41.509,317.679 40.753 C 315.109 39.300,312.723 37.918,308.059 35.182 C 306.488 34.260,305.011 33.432,304.776 33.343 C 304.542 33.254,303.953 32.924,303.467 32.610 C 302.178 31.777,298.573 29.667,298.438 29.667 C 298.375 29.667,297.031 28.894,295.453 27.949 C 293.875 27.004,292.198 26.032,291.727 25.790 C 291.256 25.548,289.739 24.671,288.356 23.841 C 286.973 23.012,285.796 22.333,285.740 22.333 C 285.684 22.333,284.388 21.589,282.861 20.679 C 281.333 19.769,279.614 18.776,279.040 18.471 C 278.466 18.166,276.966 17.307,275.707 16.561 C 274.447 15.816,272.967 14.964,272.417 14.668 C 271.867 14.372,270.779 13.739,270.000 13.261 C 269.221 12.783,267.458 11.768,266.083 11.005 C 264.708 10.242,263.276 9.408,262.901 9.152 C 262.526 8.896,261.589 8.354,260.818 7.947 C 260.047 7.540,258.261 6.516,256.848 5.671 C 255.436 4.826,254.086 4.051,253.848 3.948 C 253.611 3.845,252.854 3.415,252.167 2.992 C 250.149 1.751,247.447 0.225,247.042 0.096 L 246.667 -0.022 246.667 35.485 M0.000 256.912 L 0.000 297.158 0.542 297.438 C 0.840 297.592,2.197 298.388,3.558 299.207 C 4.919 300.026,6.232 300.784,6.475 300.891 C 6.718 300.998,8.209 301.856,9.789 302.797 C 11.369 303.738,12.794 304.557,12.955 304.617 C 13.117 304.677,14.000 305.187,14.917 305.751 C 15.833 306.315,17.633 307.362,18.917 308.079 C 21.413 309.474,21.634 309.604,22.917 310.425 C 23.375 310.719,24.313 311.259,25.000 311.626 C 26.213 312.272,28.875 313.816,30.917 315.058 C 31.467 315.392,31.978 315.666,32.053 315.666 C 32.127 315.666,33.489 316.454,35.077 317.415 C 36.666 318.377,38.105 319.217,38.275 319.281 C 38.444 319.345,39.858 320.160,41.417 321.092 C 42.975 322.023,44.587 322.957,45.000 323.166 C 45.413 323.376,46.875 324.222,48.250 325.047 C 49.625 325.871,51.050 326.686,51.417 326.856 C 51.783 327.027,52.421 327.380,52.833 327.640 C 54.190 328.497,57.233 330.268,58.167 330.744 C 58.671 331.001,59.383 331.412,59.750 331.658 C 60.554 332.197,63.938 334.167,64.061 334.167 C 64.109 334.167,65.473 334.959,67.091 335.928 C 68.709 336.897,70.157 337.736,70.308 337.793 C 70.460 337.850,71.881 338.673,73.466 339.623 C 75.051 340.573,76.476 341.397,76.633 341.454 C 76.789 341.512,78.215 342.337,79.801 343.288 C 81.388 344.239,82.813 345.064,82.968 345.122 C 83.123 345.179,84.337 345.875,85.667 346.668 C 86.996 347.462,88.533 348.356,89.083 348.656 C 90.634 349.501,92.335 350.491,93.250 351.081 C 93.708 351.377,94.646 351.918,95.333 352.283 C 96.021 352.648,97.783 353.658,99.250 354.526 C 100.717 355.394,102.044 356.152,102.199 356.210 C 102.354 356.268,103.797 357.107,105.406 358.074 C 107.014 359.042,108.379 359.833,108.437 359.833 C 108.496 359.833,109.715 360.536,111.147 361.395 C 112.579 362.254,114.013 363.089,114.333 363.249 C 114.654 363.410,116.154 364.278,117.667 365.178 C 119.179 366.077,120.886 367.062,121.460 367.365 C 122.034 367.668,123.496 368.512,124.710 369.241 C 125.924 369.969,127.214 370.709,127.577 370.886 C 127.940 371.063,128.802 371.561,129.493 371.992 C 130.185 372.423,131.800 373.366,133.083 374.087 C 134.367 374.808,136.250 375.904,137.269 376.521 C 138.287 377.139,139.487 377.825,139.935 378.047 C 140.383 378.268,141.725 379.036,142.917 379.754 C 144.108 380.471,145.721 381.408,146.500 381.836 C 147.279 382.263,149.016 383.262,150.361 384.056 C 151.705 384.850,152.923 385.500,153.069 385.500 C 153.310 385.500,153.333 382.312,153.333 350.036 L 153.333 314.572 152.792 314.263 C 152.494 314.093,151.855 313.697,151.373 313.383 C 150.891 313.069,150.141 312.657,149.706 312.466 C 149.272 312.275,148.617 311.916,148.250 311.668 C 147.377 311.077,144.578 309.450,143.000 308.615 C 142.313 308.252,141.262 307.639,140.667 307.253 C 140.071 306.867,138.271 305.820,136.667 304.926 C 135.063 304.031,133.637 303.207,133.500 303.095 C 133.157 302.813,130.582 301.333,130.436 301.333 C 130.371 301.333,129.027 300.558,127.451 299.610 C 125.874 298.663,124.229 297.720,123.796 297.514 C 123.364 297.309,122.764 296.975,122.463 296.772 C 121.595 296.186,117.864 294.001,117.717 293.993 C 117.643 293.989,117.007 293.632,116.302 293.201 C 113.690 291.603,112.718 291.031,111.417 290.328 C 110.683 289.931,109.408 289.197,108.583 288.697 C 106.522 287.445,105.747 286.999,104.620 286.417 C 104.087 286.142,102.661 285.320,101.451 284.590 C 100.240 283.861,98.725 282.991,98.083 282.658 C 97.442 282.325,96.579 281.824,96.167 281.545 C 95.754 281.266,94.104 280.305,92.500 279.410 C 90.896 278.514,89.276 277.573,88.901 277.318 C 88.526 277.063,87.589 276.519,86.818 276.109 C 85.317 275.311,83.168 274.060,81.644 273.097 C 81.127 272.771,80.302 272.303,79.811 272.058 C 79.319 271.812,78.467 271.335,77.917 270.997 C 76.023 269.834,73.249 268.225,72.943 268.112 C 72.774 268.050,71.461 267.299,70.026 266.443 C 68.591 265.588,66.517 264.379,65.417 263.757 C 64.317 263.136,62.987 262.355,62.462 262.022 L 61.507 261.417 61.503 239.042 L 61.500 216.667 30.750 216.667 L 0.000 216.667 0.000 256.912 M338.500 239.067 L 338.500 261.468 336.708 262.540 C 335.723 263.129,334.392 263.898,333.750 264.248 C 332.181 265.104,330.758 265.937,329.750 266.588 C 329.292 266.884,328.242 267.485,327.417 267.922 C 326.592 268.360,324.810 269.384,323.457 270.198 C 322.105 271.012,320.867 271.725,320.707 271.782 C 320.375 271.902,316.356 274.260,315.044 275.105 C 314.564 275.414,314.077 275.672,313.961 275.679 C 313.845 275.686,313.225 276.015,312.583 276.412 C 310.955 277.418,307.679 279.333,307.587 279.333 C 307.479 279.333,304.750 280.935,303.750 281.585 C 303.292 281.883,302.354 282.424,301.667 282.788 C 300.001 283.670,297.252 285.269,296.383 285.861 C 295.998 286.123,295.336 286.487,294.912 286.669 C 294.488 286.850,293.753 287.250,293.279 287.556 C 291.927 288.429,288.685 290.333,288.544 290.336 C 288.474 290.338,287.742 290.747,286.917 291.245 C 286.092 291.744,284.667 292.581,283.750 293.105 C 280.685 294.858,278.260 296.275,277.128 296.974 C 276.511 297.355,275.938 297.667,275.855 297.667 C 275.701 297.667,272.125 299.766,270.555 300.778 C 270.081 301.083,269.594 301.339,269.472 301.346 C 269.350 301.352,268.725 301.683,268.083 302.082 C 267.045 302.726,264.795 304.031,261.250 306.048 C 260.608 306.412,259.708 306.955,259.250 307.252 C 258.792 307.550,257.854 308.090,257.167 308.452 C 255.703 309.224,253.280 310.639,252.054 311.439 C 251.580 311.748,250.843 312.151,250.417 312.333 C 249.990 312.516,249.253 312.917,248.779 313.224 C 248.305 313.531,247.635 313.950,247.292 314.155 L 246.667 314.527 246.667 350.014 C 246.667 381.941,246.693 385.500,246.925 385.500 C 247.183 385.500,248.842 384.560,251.508 382.903 C 252.292 382.416,253.118 381.947,253.343 381.861 C 253.568 381.776,255.065 380.924,256.668 379.969 C 258.271 379.014,259.702 378.187,259.847 378.132 C 259.993 378.077,261.439 377.237,263.061 376.266 C 264.683 375.295,266.051 374.500,266.101 374.500 C 266.227 374.500,269.597 372.542,270.417 371.992 C 270.783 371.746,271.646 371.249,272.333 370.887 C 273.021 370.525,274.633 369.605,275.917 368.842 C 277.200 368.078,278.559 367.295,278.937 367.102 C 279.315 366.908,280.815 366.051,282.271 365.197 C 286.226 362.875,289.092 361.211,290.583 360.369 C 293.161 358.914,295.092 357.786,295.930 357.246 C 296.395 356.947,297.183 356.497,297.680 356.248 C 298.177 355.999,299.733 355.110,301.137 354.272 C 302.542 353.435,304.267 352.446,304.971 352.074 C 305.674 351.702,306.850 351.019,307.583 350.557 C 308.317 350.096,309.517 349.395,310.250 349.001 C 310.983 348.606,312.756 347.582,314.188 346.725 C 315.621 345.868,316.837 345.167,316.891 345.167 C 316.991 345.167,320.171 343.315,321.500 342.482 C 321.912 342.224,322.850 341.701,323.583 341.321 C 324.317 340.941,325.110 340.492,325.347 340.323 C 325.837 339.974,328.224 338.583,329.833 337.708 C 330.429 337.383,332.004 336.468,333.333 335.673 C 334.662 334.878,335.865 334.185,336.005 334.133 C 336.145 334.081,337.592 333.243,339.221 332.269 C 340.850 331.296,342.236 330.500,342.300 330.500 C 342.364 330.499,342.867 330.226,343.417 329.891 C 345.501 328.625,348.108 327.106,348.750 326.785 C 349.117 326.602,350.504 325.799,351.833 325.000 C 353.162 324.202,354.587 323.377,355.000 323.168 C 355.412 322.958,357.043 322.010,358.624 321.060 C 360.204 320.110,361.547 319.333,361.609 319.333 C 361.725 319.333,365.258 317.275,366.417 316.532 C 366.783 316.297,367.702 315.784,368.457 315.392 C 369.213 314.999,370.038 314.533,370.291 314.355 C 370.841 313.968,373.453 312.447,375.099 311.557 C 375.749 311.205,377.211 310.365,378.349 309.690 C 381.764 307.664,385.496 305.497,387.000 304.667 C 388.621 303.773,392.047 301.766,392.667 301.348 C 392.896 301.194,393.305 300.972,393.575 300.855 C 393.846 300.739,395.402 299.849,397.034 298.878 L 400.000 297.114 400.000 256.890 L 400.000 216.667 369.250 216.667 L 338.500 216.667 338.500 239.067 M174.500 350.333 L 174.500 385.500 199.917 385.500 L 225.333 385.500 225.333 350.333 L 225.333 315.167 199.917 315.167 L 174.500 315.167 174.500 350.333 " stroke="none" fill="#145ccc" fill-rule="evenodd"></path><path id="path1" d="" stroke="none" fill="#185ccc" fill-rule="evenodd"></path><path id="path2" d="" stroke="none" fill="#185ccc" fill-rule="evenodd"></path><path id="path3" d="" stroke="none" fill="#185ccc" fill-rule="evenodd"></path><path id="path4" d="" stroke="none" fill="#185ccc" fill-rule="evenodd"></path></g></svg>